<svg xmlns="http://www.w3.org/2000/svg" viewBox="0 0 529.14 193.9"><defs><style>.cls-1{fill:#936c3d;}.cls-2{fill:#262673;}</style></defs><title>Asset 1</title><g id="Layer_2" data-name="Layer 2"><g id="Layer_1-2" data-name="Layer 1"><polygon class="cls-1" points="0.89 193.6 4.5 193.6 4.5 185.62 14.48 185.62 14.48 182.1 4.5 182.1 4.5 177.17 15.61 177.17 15.61 173.66 0.89 173.66 0.89 193.6"/><rect class="cls-1" x="28.18" y="173.66" width="3.62" height="19.94"/><polygon class="cls-1" points="58.91 186.85 48.45 173.66 46.91 173.66 46.76 173.47 46.76 173.66 45.5 173.66 45.5 193.6 49.07 193.6 49.07 180.09 59.78 193.6 62.47 193.6 62.47 173.66 58.91 173.66 58.91 186.85"/><path class="cls-1" d="M84.55,173.53l-.09-.19-.09.19H83.12L73.84,193.6h3.9L80,188.66h8.92l2.24,4.94h4l-9.28-20.07Zm-3,11.64,2.86-6.27,2.85,6.27Z"/><polygon class="cls-1" points="119.91 186.85 109.45 173.66 107.92 173.66 107.76 173.47 107.76 173.66 106.5 173.66 106.5 193.6 110.07 193.6 110.07 180.09 120.78 193.6 123.47 193.6 123.47 173.66 119.91 173.66 119.91 186.85"/><polygon class="cls-1" points="136.52 177.15 146.98 177.15 136.09 191.33 136.09 193.6 152.33 193.6 152.33 190.11 141.45 190.11 152.33 175.94 152.33 173.66 136.52 173.66 136.52 177.15"/><polygon class="cls-1" points="178.14 173.66 168.55 183.56 168.55 173.66 164.93 173.66 164.93 193.6 168.55 193.6 168.55 188.44 171.69 185.25 178.49 193.6 183.17 193.6 174.26 182.67 183.18 173.66 178.14 173.66"/><path class="cls-1" d="M211.53,183.11a9.86,9.86,0,0,0-10-9.75,10.07,10.07,0,0,0-10,10.32,9.89,9.89,0,0,0,10,10.22,10,10,0,0,0,10-9.81m-10,6.32c-3.64,0-6.38-2.92-6.38-6.83a6.37,6.37,0,1,1,12.71.05v.05A6.4,6.4,0,0,1,201.55,190.41Z"/><polygon class="cls-1" points="241.92 173.42 241.75 173.66 240.23 173.66 233.76 183.19 227.29 173.66 225.72 173.66 225.55 173.42 225.55 173.66 224.29 173.66 224.29 193.6 227.86 193.6 227.86 180.84 232.74 187.94 233.18 188.44 234.39 188.44 239.61 180.84 239.61 193.6 243.23 193.6 243.23 173.66 241.92 173.66 241.92 173.42"/><path class="cls-1" d="M264.31,173.66h-7.55V193.6h3.62V187H264c4.73,0,8-2.78,8-6.82S269,173.66,264.31,173.66Zm4.09,6.67c0,1.93-1.7,3.18-4.34,3.18h-3.69v-6.34h3.84c1.56,0,4.19.4,4.19,3.11Z"/><polygon class="cls-1" points="287.8 185.31 297.9 185.31 297.9 181.8 287.8 181.8 287.8 177.17 299.04 177.17 299.04 173.66 284.18 173.66 284.18 193.6 299.16 193.6 299.16 190.09 287.8 190.09 287.8 185.31"/><polygon class="cls-1" points="310.4 177.17 316.55 177.17 316.55 193.6 320.16 193.6 320.16 177.17 326.31 177.17 326.31 173.66 310.4 173.66 310.4 177.17"/><polygon class="cls-1" points="342.2 185.31 352.3 185.31 352.3 181.8 342.2 181.8 342.2 177.17 353.43 177.17 353.43 173.66 338.58 173.66 338.58 193.6 353.56 193.6 353.56 190.09 342.2 190.09 342.2 185.31"/><polyline class="cls-1" points="367.31 173.66 366.06 173.66 366.06 193.6 369.62 193.6 369.62 180.09 380.33 193.6 383.02 193.6 383.02 173.66 379.46 173.66 379.46 186.85 369 173.66 367.47 173.66"/><polygon class="cls-1" points="396.08 177.15 406.53 177.15 395.65 191.33 395.65 193.6 411.89 193.6 411.89 190.11 401.01 190.11 411.89 175.94 411.89 173.66 396.08 173.66 396.08 177.15"/><path class="cls-1" d="M451.18,173.53l-.09-.19-.09.19h-1.26l-9.28,20.07h3.91l2.24-4.94h8.92l2.24,4.94h4l-9.28-20.07Zm-3,11.64,2.86-6.27,2.85,6.27Z"/><path class="cls-1" d="M480,182.15v3.51h5.9V189a8,8,0,0,1-4.47,1.43c-3.89,0-6.4-2.67-6.4-6.86,0-3.84,2.63-6.73,6.13-6.73a6.8,6.8,0,0,1,4.91,1.83l.87.76,2.39-2.74-.91-.75a10.44,10.44,0,0,0-7.18-2.58c-6.18,0-9.87,5.22-9.87,10.32,0,6,4.12,10.22,10,10.22a11.74,11.74,0,0,0,7.69-2.94l.39-.34v-8.47Z"/><polygon class="cls-1" points="523.26 173.26 511.5 173.26 505.62 183.43 511.5 193.59 523.26 193.59 529.14 183.43 523.26 173.26"/><path class="cls-2" d="M116.5,40.71a45.56,45.56,0,0,1-4.64,20.94A41.84,41.84,0,0,1,99,76.74a55.43,55.43,0,0,1-17.8,8.74,74.5,74.5,0,0,1-20.57,2.77H43.7v45.83a16.34,16.34,0,0,0,1.23,6.55Q46.15,143.46,50,145a33.08,33.08,0,0,0,6.77,1.39,85.42,85.42,0,0,0,8.9.75v7.57H.75v-7.57q2.56-.21,7.41-.75A25.46,25.46,0,0,0,14.92,145a9.18,9.18,0,0,0,4.64-4.05A14.28,14.28,0,0,0,21,134.08V24.94a19.9,19.9,0,0,0-1.07-6.71q-1.07-3-5-4.48a45.15,45.15,0,0,0-8-2q-4-.58-6.87-.8V3.41H69.07q21.1,0,34.27,10.18T116.5,40.71ZM84.09,66.51a28.68,28.68,0,0,0,4.8-10.61A47.69,47.69,0,0,0,90.06,46a55.32,55.32,0,0,0-1.44-12.36,28.73,28.73,0,0,0-5-11,24.81,24.81,0,0,0-9.81-7.78q-6.08-2.77-15.13-2.77h-15V79H54.57q11.51,0,18.71-3.57A27.41,27.41,0,0,0,84.09,66.51Z"/><path class="cls-2" d="M273.39,11a29.45,29.45,0,0,0-6.71,1.23,25.39,25.39,0,0,0-6.5,2.72,17.63,17.63,0,0,0-5.81,5.76A68.75,68.75,0,0,0,250,29Q242.9,45.94,228.62,81.8T199.2,156.57h-8.85Q175,115.32,160.73,77.06t-19.4-51.69a20.05,20.05,0,0,0-3.41-5.81,25,25,0,0,0-5.65-4.74,22.4,22.4,0,0,0-6.4-2.72,36.94,36.94,0,0,0-6.5-1.12V3.41H182V11a88.47,88.47,0,0,0-13.49,1.6Q163,13.75,163,16.73a11,11,0,0,0,.43,2.77q.43,1.6.75,2.56,3.95,10.45,12.79,34.07t25.15,67.25q8.1-19.73,18.65-46.61t14.18-36.91q3.52-9.71,4.1-13.44a41,41,0,0,0,.59-6.08,5,5,0,0,0-2.18-4.1,19.72,19.72,0,0,0-5.81-2.82,49.7,49.7,0,0,0-7.14-1.6q-3.63-.53-7.35-.85V3.41h56.26Z"/><path class="cls-2" d="M418.87,11a29.45,29.45,0,0,0-6.71,1.23,25.39,25.39,0,0,0-6.5,2.72,17.63,17.63,0,0,0-5.81,5.76A68.75,68.75,0,0,0,395.53,29q-7.14,16.95-21.42,52.81t-29.42,74.77h-8.85q-15.35-41.25-29.63-79.51t-19.4-51.69a20.05,20.05,0,0,0-3.41-5.81,25,25,0,0,0-5.65-4.74,22.4,22.4,0,0,0-6.4-2.72,36.94,36.94,0,0,0-6.5-1.12V3.41h62.58V11A88.47,88.47,0,0,0,314,12.58q-5.49,1.17-5.49,4.16a11,11,0,0,0,.43,2.77q.43,1.6.75,2.56,3.95,10.45,12.79,34.07t25.15,67.25q8.1-19.73,18.65-46.61t14.18-36.91q3.52-9.71,4.1-13.44a41,41,0,0,0,.59-6.08,5,5,0,0,0-2.18-4.1,19.72,19.72,0,0,0-5.81-2.82,49.7,49.7,0,0,0-7.14-1.6q-3.63-.53-7.35-.85V3.41h56.26Z"/><path class="cls-2" d="M519,85.27A35.35,35.35,0,0,1,526,96.94a43.44,43.44,0,0,1,2.29,14.76q0,20-14.82,33t-36.77,13a68,68,0,0,1-20.25-3.14A78.09,78.09,0,0,1,439,147l-4.58,7.78h-8.53L424.42,103H433a113.91,113.91,0,0,0,6.24,17.32,60.45,60.45,0,0,0,9.43,14.44,42.71,42.71,0,0,0,13,10,37.77,37.77,0,0,0,17.21,3.73,38.92,38.92,0,0,0,12.84-1.92,21.51,21.51,0,0,0,14-13.72,33.25,33.25,0,0,0,1.65-10.94A30.38,30.38,0,0,0,502.22,105Q497.1,97.14,487,93.08q-6.93-2.76-15.88-6.1t-15.45-6.32q-12.79-5.75-19.88-15.08t-7.09-24.35a37.25,37.25,0,0,1,3.52-16.09,41.93,41.93,0,0,1,10-13.32,45.4,45.4,0,0,1,14.6-8.68A49.89,49.89,0,0,1,474.4,0a51.51,51.51,0,0,1,18.71,3.2,89.16,89.16,0,0,1,15.08,7.46l4.37-7.25h8.53l.85,50.2h-8.63Q511,45,508,37.09a58.48,58.48,0,0,0-7.62-14.28,35,35,0,0,0-11.19-9.86Q482.61,9.27,473,9.27a24.74,24.74,0,0,0-17.27,6.5,20.67,20.67,0,0,0-7.14,15.88q0,9.81,4.58,16.25a33.53,33.53,0,0,0,13.32,10.61A165.8,165.8,0,0,0,481.81,65q7.51,2.72,14.55,5.81a108.57,108.57,0,0,1,12.31,6.29A46.25,46.25,0,0,1,519,85.27Z"/></g></g></svg>
